<mxfile agent="5.0 (Windows NT 10.0; Win64; x64) AppleWebKit/537.36 (KHTML, like Gecko) draw.io/13.2.2 Chrome/83.0.4103.100 Electron/9.0.3 Safari/537.36" compressed="false" etag="bYsXQEBpe86CtkmkOr99" host="Electron" modified="2020-06-22T08:29:28.763Z" type="device" version="13.2.2">
  <diagram id="Page-1" name="Page-1">
    <mxGraphModel arrows="1" connect="1" dx="852" dy="494" fold="1" grid="1" gridSize="10" guides="1" math="0" page="0" pageHeight="1169" pageScale="1" pageWidth="827" shadow="1" tooltips="1">
      <root>
        <mxCell id="0" />
        <mxCell id="1" parent="0" />
        <object id="node-1" label="node-1">
          <mxCell parent="1" style="rounded=1;whiteSpace=wrap;html=1;" vertex="1">
            <mxGeometry as="geometry" height="60" width="120" x="360" y="492" />
          </mxCell>
        </object>
        <object id="node-2" label="node-2">
          <mxCell parent="1" style="rounded=1;whiteSpace=wrap;html=1;" vertex="1">
            <mxGeometry as="geometry" height="60" width="120" x="202" y="149" />
          </mxCell>
        </object>
        <object id="node-3" label="node-3">
          <mxCell parent="1" style="rounded=1;whiteSpace=wrap;html=1;" vertex="1">
            <mxGeometry as="geometry" height="60" width="120" x="677" y="287" />
          </mxCell>
        </object>
        <object a="b" c="d" id="node-4" label="node-4" link="http://google.com">
          <mxCell parent="1" style="rounded=1;whiteSpace=wrap;html=1;" vertex="1">
            <mxGeometry as="geometry" height="60" width="120" x="268" y="439" />
          </mxCell>
        </object>
        <object id="98b6238be5acd1302f49c499f9173e32" label="bla1">
          <mxCell edge="1" parent="1" source="node-1" style="endArrow=none;" target="node-2">
            <mxGeometry as="geometry" relative="1" />
          </mxCell>
        </object>
        <object id="c0b00b2fdeaaa6f41cab0ef2448ffcef" label="bla2">
          <mxCell edge="1" parent="1" source="node-2" style="endArrow=none;" target="node-3">
            <mxGeometry as="geometry" relative="1" />
          </mxCell>
        </object>
        <object id="c8fe43e5ad1ce2c05bfc0b371d1fb987" label="bla3">
          <mxCell edge="1" parent="1" source="node-3" style="endArrow=none;" target="node-1">
            <mxGeometry as="geometry" relative="1" />
          </mxCell>
        </object>
        <object id="3972a5fc4a57b84e0376216959d97b1c" label="bla4">
          <mxCell edge="1" parent="1" source="node-4" style="endArrow=none;" target="node-3">
            <mxGeometry as="geometry" relative="1" />
          </mxCell>
        </object>
        <object id="node-55" label="node-55">
          <mxCell parent="1" style="shape=mxgraph.cisco.routers.atm_router;html=1;pointerEvents=1;dashed=0;fillColor=#036897;strokeColor=#ffffff;strokeWidth=2;verticalLabelPosition=bottom;verticalAlign=top;align=center;outlineConnect=0;" vertex="1">
            <mxGeometry as="geometry" height="53" width="78" x="641" y="385" />
          </mxCell>
        </object>
        <object id="80ae0df67df27c592ace3f870f67e3d6" label="">
          <mxCell edge="1" parent="1" source="node-55" style="endArrow=none;" target="node-2">
            <mxGeometry as="geometry" relative="1" />
          </mxCell>
        </object>
      <object id="node-66" label="node-66">
      <mxCell parent="1" style="rounded=1;whiteSpace=wrap;html=1;" vertex="1">
          <mxGeometry as="geometry" height="60" width="120" x="204" y="359" />
      </mxCell>
    </object><object id="8e06106b981adb2f918b69e942a412bf" label="">
      <mxCell edge="1" parent="1" source="node-55" style="endArrow=none;" target="node-3">
          <mxGeometry as="geometry" relative="1" />
      </mxCell>
    </object><object id="3ab6b73adb35a319568855c59286d004" label="">
      <mxCell edge="1" parent="1" source="node-55" style="endArrow=none;" target="node-66">
          <mxGeometry as="geometry" relative="1" />
      </mxCell>
    </object></root>
    </mxGraphModel>
  </diagram>
</mxfile>